<svg xmlns="http://www.w3.org/2000/svg" width="139" height="227" viewBox="0 0 139 227">
  <defs>
    <style>
      .cls-1 {
        fill: #fff;
        fill-rule: evenodd;
      }
    </style>
  </defs>
  <path id="icon.svg" class="cls-1" d="M231.905,204.643c4.58-.677,20.416-2.848,26.025,7.847,4.39,8.37,8.37,21.224,5.312,39.894-2.381,14.537-9.421,33.879-3.246,34.818,6.411,0.975,14.552,4.189,18.059,9.263,2.312,3.345,2.251,6.625.108,10.505-1.779,3.221-18.317,6.439-18.649,10.639-0.2,2.53.364,18.334,2.341,34.424,0.948,7.712-1.571,14.956-7.772,19.609-6.524,4.895-27.144,4.046-34.838.577-6.421-2.9-8.01-4.314-3.876-6.68,4.669-2.671,25.321.405,32.771-5.5,0.323-17.552-4.057-45.427,2.923-51.985,4.163-3.913,9.764-7.338,11.245-7.2,7.469,0.7-4.557-1.927-7.99-2.888-2.41-.674-8.782-2.718-8.9-11.757-0.189-14.518,9.391-61.106.335-67.166-6.711-4.491-30.83,1.479-36.045-.364a3.09,3.09,0,0,1-.624-5.12C212.115,210.98,223.612,205.867,231.905,204.643Zm-4.056,37.585c0.931,1.862-.466,20.707-1.863,22.335s-3.259,1.862-5.588,0-0.807-8.96-.378-20.228C220.252,238.236,226.918,240.367,227.849,242.228Zm89.757,29.48c16.252-2.565,24.787,2.352,28.521,5.884,4.144,3.921-7.14,2.792-17.64,3.957-30.888.334-21.267,28.1-23.338,71.424-0.463,9.684-10.673,18.6-13.562,21.612-1.438,1.5-2.233,2.023.088,1.616,1.9-.331,6.275,3.742,8.6,8.364,6.838,13.6.674,29.227,8.019,33.023,8.336,4.309,27.581-3.177,30.031.324,3.488,4.986-13.916,11.615-15.589,12.026-10.153,2.5-24.194.488-26.9-5.307-3.269-7-4.7-23.6-5.783-29.091-1.345-6.816-6.843-6.609-11.037-12.443-6.6-9.19,10.174-17.911,12.1-33.94C294.221,323.367,288.727,276.265,317.606,271.708Zm0.674,38.52c2.282-2.03,5.061-1.223,5.773.614,3.121,8.05.192,19.5-.22,20.255a3.683,3.683,0,0,1-6.087.752C316.534,330.241,316.017,312.242,318.28,310.228Z" transform="translate(-208 -204)"/>
</svg>
